<svg xmlns="http://www.w3.org/2000/svg" width="226" height="168" fill="#1e3791" xmlns:v="https://vecta.io/nano"><path d="M179.1 158.044c-.524 0-1.179-.131-1.572-.524l-33.274-26.724h-43.361a2.63 2.63 0 0 1-2.62-2.62v-78.6a2.63 2.63 0 0 1 2.62-2.62h119.21a2.63 2.63 0 0 1 2.62 2.62v78.6a2.63 2.63 0 0 1-2.62 2.62H181.72v24.497c0 1.048-.524 1.965-1.44 2.358-.393.262-.786.393-1.18.393h0zm-75.587-32.488h41.658c.655 0 1.179.262 1.572.524l29.737 23.711v-21.615a2.63 2.63 0 0 1 2.62-2.62h38.383v-73.36h-113.97v73.36z"/><path d="M46.9 121.044c.524 0 1.179-.131 1.572-.524l33.274-26.724h43.361a2.63 2.63 0 0 0 2.62-2.62v-78.6a2.63 2.63 0 0 0-2.62-2.62H5.897a2.63 2.63 0 0 0-2.62 2.62v78.6a2.63 2.63 0 0 0 2.62 2.62H44.28v24.497c0 1.048.524 1.965 1.441 2.358.393.262.786.393 1.179.393h0zm75.587-32.488H80.829c-.655 0-1.179.262-1.572.524L49.52 112.791V91.176a2.63 2.63 0 0 0-2.62-2.62H8.517v-73.36h113.97v73.36z"/></svg>