<svg xmlns="http://www.w3.org/2000/svg" xmlns:xlink="http://www.w3.org/1999/xlink" width="100%" height="100%" viewBox="0 0 1701 284" fill-rule="evenodd" stroke-linejoin="round" stroke-miterlimit="2" xmlns:v="https://vecta.io/nano"><g fill="#1e3791" fill-rule="nonzero"><path d="M0 0v283.465h1700.79V0H0zm850.393 277.795H5.669V5.669h844.724v272.126zm566.927 0H856.063V5.669h561.257v272.126zm277.8 0h-272.13V5.669h272.13v272.126zM1335.94 96.013v62.434c0 .81-.54 1.078-.94.269l-35.63-63.243c-.41-.674-1.22-1.078-2.03-1.078h-15.25c-.94 0-1.62.674-1.62 1.619v91.156a1.56 1.56 0 0 0 1.62 1.619h13.23a1.56 1.56 0 0 0 1.62-1.619v-62.3c0-.81.54-1.078.94-.272l35.63 63.108c.41.676 1.22 1.081 2.03 1.081h15.25c.95 0 1.62-.676 1.62-1.619V96.013c0-.945-.67-1.619-1.62-1.619h-13.23c-.94 0-1.62.673-1.62 1.619m-95.36 92.774h13.37a1.56 1.56 0 0 0 1.62-1.619V96.013c0-.945-.68-1.619-1.62-1.619h-13.37a1.55 1.55 0 0 0-1.61 1.619v91.156a1.55 1.55 0 0 0 1.61 1.618m-53.28-16.451V96.013c0-.945-.67-1.619-1.62-1.619h-13.36c-.94 0-1.62.674-1.62 1.619v91.156a1.56 1.56 0 0 0 1.62 1.619h46.02c.95 0 1.62-.676 1.62-1.619v-12.406c0-.943-.67-1.619-1.62-1.619h-30.23c-.54-.001-.81-.403-.81-.808m-87.29-62.301h12.28c10.93 0 19.71 5.8 19.71 17.801s-8.78 17.799-19.85 17.799h-12.14c-.54 0-.81-.405-.81-.81v-33.981c0-.537.27-.809.81-.809m31.31 78.752h17.01c1.35 0 1.75-.945.94-2.024l-20.24-27.374c-.28-.405-.28-.943.27-1.212 12.01-4.854 19.97-15.509 19.97-30.341 0-21.037-15.93-33.443-36.17-33.443h-28.88c-.95 0-1.62.674-1.62 1.619v91.156c0 .943.67 1.619 1.62 1.619h13.36a1.56 1.56 0 0 0 1.62-1.619v-25.082c0-.538.4-.809.81-.809h10.26c.4 0 .81.272 1.07.541l18.09 25.888c.41.677 1.08 1.081 1.89 1.081m-73.26-80.368V96.013c0-.945-.67-1.619-1.62-1.619h-49.12c-.95 0-1.62.674-1.62 1.619v91.156c0 .943.67 1.619 1.62 1.619h49.12c.95 0 1.62-.676 1.62-1.619v-12.406c0-.943-.67-1.619-1.62-1.619h-33.47c-.54 0-.81-.402-.81-.807V149.68c0-.538.41-.809.81-.809h33.47c.95 0 1.62-.674 1.62-1.616v-12.271c0-.945-.67-1.619-1.62-1.619h-33.47c-.54 0-.81-.269-.81-.81v-21.71a.78.78 0 0 1 .81-.81h33.47a1.55 1.55 0 0 0 1.62-1.616m-105.22 64.724h-14.307c-.538 0-.808-.402-.808-.807V149.68c0-.538.269-.809.808-.809h14.307c8.774 0 13.633 4.99 13.633 12.137 0 7.281-4.859 12.135-13.633 12.135m-1.348-63.108c8.502 0 13.225 4.586 13.225 11.597s-4.723 11.733-13.225 11.733h-12.958c-.538 0-.808-.269-.808-.81v-21.71c0-.538.269-.81.808-.81h12.958zm19.704 29.668c6.748-4.314 10.797-11.056 10.797-19.822 0-14.428-9.987-25.486-28.342-25.486h-30.773c-.943 0-1.618.674-1.618 1.619v91.156c0 .943.674 1.619 1.618 1.619h31.988c18.894 0 28.881-11.464 28.881-26.565 0-9.845-4.723-17.261-12.551-21.441-.541-.407-.541-.811 0-1.08m629.504 82.455l-7.29-46.724 1.02-.215c2.17-.376 2.99-2.861 2.02-4.532-5.61-9.655-7.61-21.687-7.61-33.645 0-7.37 1.23-14.454 3.5-21.051.13-.378.27-.754.41-1.128.08-.23.24-.738.27-.817 1.51-3.291 4.24-10.43 5.04-18.427.66-6.474-.16-11.872-1.3-16.931-.54-2.449-1.92-6.476-2.8-8.345l-.45-.801c2.02-2.034 2.41-5.28.86-7.976-1.83-3.162-5.6-4.414-8.4-2.792-.3.17-.99.657-1.3.883-.52-.376-.81-.565-.81-.565-.02-.011-.8-.519-1.48-.876a10.09 10.09 0 0 0-.26-.135c-2.88-1.278-6.01-1.956-9.37-1.956-1.64 0-3.24.17-4.8.492-3.35.698-6.44 2.114-9.09 4.083-1.39.445-2.88.546-2.88.546l-3.81.183c-1.79.075-3.83-.013-3.83-.013-.89 0-1.61.726-1.61 1.62 0 .08.58 5.306.58 5.323.15 1.308.7 2.543 1.79 3.252l.13.089c.35.234.53.422.6.622.42 1.138 1.27 2.275 1.84 2.621.27.161.67.082.75-.215.72-2.846 2.42.226 5.65-1.527.83-.451 1.28 1.566.93 2.447l-.3.763a5.12 5.12 0 0 1-4.02 3.177c-1.43.208-2.26.354-2.24.552.17 1.613-.02 2.999 1.62 3.967.48.257.72.318.72.318 2.51.659 9.83 3.467.52 14.456 0 0-.89.988-1.57 1.97a7.21 7.21 0 0 0-.51.889l-.19.395-28-10.478c-.85-.327-1.93-1.248-2.45-1.989l-2.75-4.739c-1.72-2.369-3.21-3.269-6.19-3.512-2.14-.176-3.89-.013-3.89-.013-.83.043-1.32.238-1.49.724-.2.526-.21 1.852.6 3.508l2.41 4.412c.21.314 3.24 7.088 3.24 7.088.3.836.82 1.572 1.5 2.139.06.052 28.75 21.723 28.75 21.723l-30.3 15.111c-.87.473-1.89.58-2.84.292l-2.72-.823c-4.95-2.208-8.69-.672-10.87 1.16-.02.017-.86.812-.86.812-.82.823-.52 1.941.42 2.401l5.83 3.53 7.45 4.408c1.15.67 2.51.891 3.82.623l29.41-5.931c.71 11.258 3.55 20.617 3.55 20.617-5.31 5.095-12.61 14.834-15.01 28.189-1.43 7.939-.96 15.135 1.2 23.594-4.1.226-8.07.833-11.36 3.121-3.13 2.178-3.78 6.057-3.79 7.995l22.96.051 1.94-.011c2.42-.032 3.04-2.427 3.05-2.434.23-.725.31-1.676.42-2.382.73-4.595 1.31-9.365 5.4-17.605 3.3-6.657 9.14-12.65 9.14-12.65.02.019 9.66 14.306 25.98 24.105-3.13.198-7.17 1.231-9.57 2.565-3.8 2.112-4.85 6.453-4.76 8.468h23.79c1.63 0 3-1.057 3.5-2.498.05-.148.08-.303.12-.46a3.9 3.9 0 0 0 .05-.339 3.76 3.76 0 0 0-.01-.749zM70.279 85.282c-.1-.3 0-.5.3-.65l2.551-1.05c.3-.15.55 0 .649.3 1.051 3.601 4.001 5.701 7.801 5.701 4.9 0 7.4-2.8 7.4-6.451 0-3.9-2.6-6.1-6.45-6.85l-2.55-.5c-5.201-1-8.651-4.3-8.651-9.601S75.63 56.48 81.83 56.48c5.051 0 8.851 2.8 10.501 7.2.1.3 0 .5-.301.65l-2.6 1.1c-.3.15-.55 0-.65-.3-1.2-3.1-3.85-5.05-6.95-5.05-4.2 0-6.601 2.6-6.601 6.05 0 3.1 1.801 5.25 5.551 5.95l2.55.5c5 1 9.551 4.1 9.551 10.3 0 5.8-4.301 10.301-11.351 10.301-5.25.002-9.551-2.949-11.251-7.899zm27.301-4.55c0-7.351 4.9-12.101 11.301-12.101s11.2 4.851 11.2 11.551c0 .35 0 .75-.05 1.15a.45.45 0 0 1-.5.4H101.88c-.35 0-.55.15-.45.65.551 4.351 3.501 7.201 7.951 7.201 2.75 0 4.95-1.25 6.55-2.9.351-.35.601-.45.851-.2l1.649 1.8c.2.2.2.45 0 .65-2.35 2.45-5.5 3.95-9.05 3.95-6.901-.001-11.801-4.801-11.801-12.151zm18.6-2.501c-.649-3.75-3.45-6.3-7.3-6.3-3.801 0-6.751 2.65-7.351 6.351-.101.4 0 .55.45.55h13.75c.402 0 .552-.15.451-.601z"/><use xlink:href="#B"/><path d="M149.179 80.732c0-7.25 4.95-12.101 11.4-12.101 3.3 0 5.851 1.1 7.551 3.101.149.15.3.05.3-.15v-1.95a.47.47 0 0 1 .5-.5h2.45a.47.47 0 0 1 .5.5v22.201a.47.47 0 0 1-.5.5h-2.45a.47.47 0 0 1-.5-.5v-1.95c0-.2-.15-.3-.3-.15-1.851 1.85-4.251 3.1-7.551 3.1-6.449 0-11.4-4.851-11.4-12.101zm18.851 5.1a1.71 1.71 0 0 0 .2-.9v-8.4a1.71 1.71 0 0 0-.2-.9c-1.25-2.2-3.75-3.7-6.9-3.7-4.95 0-8.25 3.55-8.25 8.801s3.3 8.8 8.25 8.8c3.15-.001 5.751-1.451 6.9-3.701zm12.999-25.751l2.7-1.45c.35-.15.6 0 .6.35v9.9c0 .15.1.25.25.25h2.75a.47.47 0 0 1 .5.5v2.15a.47.47 0 0 1-.5.5h-2.75c-.15 0-.25.1-.25.25v19.301a.47.47 0 0 1-.5.5h-2.65a.47.47 0 0 1-.5-.5V72.531c0-.15-.1-.25-.25-.25h-2.75a.47.47 0 0 1-.5-.5v-2.15a.47.47 0 0 1 .5-.5h2.75c.15 0 .25-.1.25-.25v-8.2c-.001-.25.1-.5.35-.6zm10.25 27.301c-.1-.3 0-.5.3-.6l2.4-.85c.3-.1.55.05.65.35.649 2.25 2.6 3.4 4.45 3.4 2.899 0 4.3-1.6 4.3-3.65 0-2.3-1.7-3.3-4.05-3.75l-2-.4c-3.4-.65-5.551-3.25-5.551-6.55 0-3.75 3.101-6.701 7.5-6.701 3.601 0 6.351 1.95 7.351 5.5.101.35-.05.55-.35.65l-2.351.6c-.3.1-.55-.05-.6-.35-.5-1.95-1.9-3.2-4.051-3.2-2.35 0-3.899 1.4-3.899 3.351 0 2.05 1.199 3 3.399 3.45l1.95.4c3.551.7 6.251 2.95 6.251 7 0 3.9-2.95 6.85-7.9 6.85-4.099 0-6.749-2.299-7.799-5.5zm35.552-18.251h2.801c.35 0 .5.2.399.55l-7.351 22.251c-.1.25-.35.4-.649.4h-3.851c-.3 0-.55-.15-.649-.4l-7.351-22.251c-.101-.35.05-.55.399-.55h2.801a.65.65 0 0 1 .6.4l5.95 18.451c.051.2.301.2.351 0l5.95-18.451a.65.65 0 0 1 .6-.4zm6.399 11.601c0-7.351 4.9-12.101 11.301-12.101s11.2 4.851 11.2 11.551c0 .35 0 .75-.05 1.15a.45.45 0 0 1-.5.4H237.53c-.35 0-.55.15-.45.65.551 4.351 3.501 7.201 7.951 7.201 2.75 0 4.95-1.25 6.55-2.9.351-.35.601-.45.851-.2l1.649 1.8c.2.2.2.45 0 .65-2.35 2.45-5.5 3.95-9.05 3.95-6.9-.001-11.801-4.801-11.801-12.151zm18.601-2.501c-.649-3.75-3.45-6.3-7.3-6.3-3.801 0-6.751 2.65-7.351 6.351-.101.4 0 .55.45.55h13.75c.401 0 .551-.15.451-.601zm20.449-9.55c.301 0 .45.2.45.5v2.65c0 .35-.2.5-.55.4l-1.2-.1c-2.601 0-4.351 1.25-5.5 2.95-.301.45-.351.8-.351 1.25v15.501a.47.47 0 0 1-.5.5h-2.65a.47.47 0 0 1-.5-.5V69.631a.47.47 0 0 1 .5-.5h2.4a.47.47 0 0 1 .5.5v1.8c0 .25.15.35.351.15 1.3-1.55 3.35-2.95 6.3-2.95.25 0 .5 0 .75.05zm28.851.45h2.7c.35 0 .55.2.45.55l-5.601 22.201c-.05.3-.25.45-.55.45h-3.5c-.351 0-.551-.2-.65-.55l-4.101-15.951c-.05-.2-.3-.2-.35 0l-4.101 15.951c-.1.35-.3.55-.649.55h-3.501c-.3 0-.5-.15-.55-.45l-5.601-22.201c-.1-.35.101-.55.45-.55h2.7c.351 0 .55.15.601.45l4.149 17.551c.051.25.25.25.301 0l4.5-17.551c.1-.3.25-.45.55-.45h2.65c.3 0 .45.15.55.45l4.5 17.551c.051.25.25.25.301 0l4.149-17.551c.053-.3.252-.45.603-.45zm6.898 11.601c0-7.25 4.95-12.101 11.4-12.101 3.3 0 5.851 1.1 7.551 3.101.149.15.3.05.3-.15v-1.95a.47.47 0 0 1 .5-.5h2.45a.47.47 0 0 1 .5.5v22.201a.47.47 0 0 1-.5.5h-2.45a.47.47 0 0 1-.5-.5v-1.95c0-.2-.15-.3-.3-.15-1.851 1.85-4.251 3.1-7.551 3.1-6.45 0-11.4-4.851-11.4-12.101zm18.851 5.1a1.71 1.71 0 0 0 .2-.9v-8.4a1.71 1.71 0 0 0-.2-.9c-1.25-2.2-3.75-3.7-6.9-3.7-4.95 0-8.25 3.55-8.25 8.801s3.3 8.8 8.25 8.8c3.15-.001 5.75-1.451 6.9-3.701zm17.699 3.95v2.25a.47.47 0 0 1-.5.5h-.9c-3.05 0-4.95-1.4-4.95-4.601V56.63a.47.47 0 0 1 .5-.5h2.65a.47.47 0 0 1 .5.5v30.852c0 1.1.399 1.8 1.5 1.8h.7a.47.47 0 0 1 .5.5zm7.098-29.701l2.7-1.45c.35-.15.6 0 .6.35v9.9c0 .15.1.25.25.25h2.75a.47.47 0 0 1 .5.5v2.15a.47.47 0 0 1-.5.5h-2.75c-.15 0-.25.1-.25.25v19.301a.47.47 0 0 1-.5.5h-2.65a.47.47 0 0 1-.5-.5V72.531c0-.15-.1-.25-.25-.25h-2.75a.47.47 0 0 1-.5-.5v-2.15a.47.47 0 0 1 .5-.5h2.75c.15 0 .25-.1.25-.25v-8.2c0-.25.1-.5.35-.6zm26.3 9.05h2.65a.47.47 0 0 1 .5.5v22.201a.47.47 0 0 1-.5.5h-2.4a.47.47 0 0 1-.5-.5v-1.65c0-.25-.2-.35-.45-.1-1.45 1.7-3.3 2.75-6.05 2.75-5.101 0-7.751-3.4-7.751-7.65V69.631a.47.47 0 0 1 .5-.5h2.65a.47.47 0 0 1 .5.5v14.951c0 3.25 1.75 5 4.851 5 2.2 0 4.05-1.2 5.25-3.3a2.03 2.03 0 0 0 .25-1.05V69.631a.47.47 0 0 1 .5-.5z"/><use xlink:href="#B" x="262.897"/><path d="M414.326 98.833c-.2-.25-.2-.5 0-.7l1.7-1.85c.2-.25.45-.25.7 0 1.45 1.75 3.649 3 6.75 3 4.601 0 7.45-2.05 7.45-6.55v-3.45c0-.25-.25-.35-.5-.1-1.7 1.65-4.1 2.65-7.2 2.65-6.25 0-11.101-4.65-11.101-11.651 0-6.9 4.95-11.551 11.301-11.551 3.1 0 5.55 1 7.25 2.8.25.25.45.15.45-.15v-1.65a.5.5 0 0 1 .5-.5h2.45a.47.47 0 0 1 .5.5v23.401c0 6.2-4.65 9.601-11.101 9.601-4.099 0-7.149-1.55-9.149-3.8zm16.401-13.851c.199-.3.25-.55.25-.9v-7.75c0-.35-.051-.6-.25-.9-1.301-2.05-3.65-3.5-6.801-3.5-4.801 0-8.051 3.4-8.051 8.25 0 4.95 3.25 8.301 8.051 8.301 3.151-.001 5.5-1.451 6.801-3.501zm-358.048 71.55v-19.301c0-.15-.101-.25-.25-.25h-2c-.3 0-.5-.2-.5-.45v-2.2a.47.47 0 0 1 .5-.5h2c.149 0 .25-.1.25-.25v-7.4c0-3.6 1.85-5.9 5.4-5.9 1 0 1.95.3 2.75.65.3.15.45.3.35.6l-.699 2.35c-.101.35-.351.35-.65.2-.5-.25-1-.4-1.45-.4-1.25 0-2.05.9-2.05 2.7v7.2c0 .15.1.25.25.25h3.1a.47.47 0 0 1 .5.5v2.2c0 .25-.199.45-.5.45h-3.1c-.15 0-.25.1-.25.25v19.301c0 .3-.2.5-.45.5h-2.7a.47.47 0 0 1-.501-.5zm26.75-22.701h2.65a.47.47 0 0 1 .5.5v22.201a.47.47 0 0 1-.5.5h-2.4a.47.47 0 0 1-.5-.5v-1.65c0-.25-.2-.35-.45-.1-1.45 1.7-3.3 2.75-6.05 2.75-5.101 0-7.751-3.4-7.751-7.65v-15.551a.47.47 0 0 1 .5-.5h2.65a.47.47 0 0 1 .5.5v14.951c0 3.25 1.75 5 4.851 5 2.2 0 4.05-1.2 5.25-3.301.2-.399.25-.649.25-1.05V134.33a.47.47 0 0 1 .5-.499zm-13.251-8.151c0-1.45 1.2-2.7 2.7-2.7 1.45 0 2.7 1.25 2.7 2.7s-1.25 2.75-2.7 2.75c-1.499.001-2.7-1.3-2.7-2.75zm9.851 0c0-1.45 1.2-2.7 2.7-2.7 1.45 0 2.7 1.25 2.7 2.7s-1.25 2.75-2.7 2.75c-1.5.001-2.7-1.3-2.7-2.75z"/><use xlink:href="#C"/><path d="M141.927 157.032h-2.7a.47.47 0 0 1-.5-.5V122.53a.47.47 0 0 1 .5-.5h2.7a.47.47 0 0 1 .5.5v16.601c0 .2.15.25.3.05l12.101-16.851c.15-.25.351-.3.601-.3h3.3c.4 0 .55.3.3.6l-10.3 14.201c-.15.25-.2.4-.051.7l10.851 18.901c.2.35.051.6-.35.6h-3.2c-.25 0-.45-.15-.55-.35l-9.201-16.151c-.1-.2-.25-.2-.35-.05l-3.25 4.55a.92.92 0 0 0-.2.65v10.851a.47.47 0 0 1-.501.5z"/><use xlink:href="#D"/><path d="M194.627 154.482v2.25a.47.47 0 0 1-.5.5h-.9c-3.05 0-4.95-1.4-4.95-4.601V121.33a.47.47 0 0 1 .5-.5h2.65a.47.47 0 0 1 .5.5v30.852c0 1.101.399 1.801 1.5 1.801h.7a.47.47 0 0 1 .5.499zm7.099-29.702l2.7-1.45c.35-.15.6 0 .6.35v9.9c0 .15.1.25.25.25h2.75a.47.47 0 0 1 .5.5v2.15a.47.47 0 0 1-.5.5h-2.75c-.15 0-.25.1-.25.25v19.301a.47.47 0 0 1-.5.5h-2.65a.47.47 0 0 1-.5-.5V137.23c0-.15-.1-.25-.25-.25h-2.75a.47.47 0 0 1-.5-.5v-2.15a.47.47 0 0 1 .5-.5h2.75c.15 0 .25-.1.25-.25v-8.2c0-.25.1-.5.35-.6z"/><use xlink:href="#D" x="50.349"/><use xlink:href="#C" x="128.597"/><use xlink:href="#D" x="102.747"/><path d="M294.323 157.032h-2.65a.47.47 0 0 1-.5-.5v-22.201a.47.47 0 0 1 .5-.5h2.4a.47.47 0 0 1 .5.5v1.65c0 .25.2.35.4.1 1.5-1.7 3.35-2.75 6.05-2.75 5.15 0 7.801 3.4 7.801 7.651v15.551a.47.47 0 0 1-.5.5h-2.65a.47.47 0 0 1-.5-.5v-14.951c0-3.25-1.75-5-4.85-5-2.2 0-4.051 1.2-5.251 3.3a2.03 2.03 0 0 0-.25 1.05v15.601a.47.47 0 0 1-.5.499zm39.751-36.202h2.65a.47.47 0 0 1 .5.5v35.202a.47.47 0 0 1-.5.5h-2.45a.47.47 0 0 1-.5-.5v-1.75c0-.351-.2-.4-.45-.101-1.65 1.851-4.15 2.851-7.4 2.851-6.45 0-11.4-4.851-11.4-12.101s4.95-12.101 11.4-12.101c3.101 0 5.5 1 7.2 2.65.301.3.45.15.45-.15v-14.5a.47.47 0 0 1 .5-.5zm-.7 29.702c.15-.301.2-.5.2-.801v-8.6c0-.3-.05-.5-.2-.8-1.3-2.2-3.75-3.7-6.9-3.7-4.95 0-8.25 3.55-8.25 8.801s3.3 8.801 8.25 8.801c3.15-.001 5.6-1.501 6.9-3.701zM89.881 207.331v-2.55a.47.47 0 0 1 .5-.5h14.601a.47.47 0 0 1 .5.5c-.5 11.001-7.4 17.801-17.351 17.801-9.851 0-17.501-7.5-17.501-18.351s7.65-18.352 17.65-18.352c6.2 0 11.451 2.65 14.551 7.101.2.25.15.5-.1.7l-2.2 1.5c-.25.2-.5.15-.7-.1-2.45-3.601-6.65-5.551-11.551-5.551-8.05 0-13.801 5.9-13.801 14.701s5.751 14.701 13.651 14.701c6.8 0 11.801-4.001 13.051-10.851.05-.15-.051-.25-.2-.25h-10.6c-.3.002-.5-.198-.5-.499z"/><use xlink:href="#E"/><use xlink:href="#F"/><use xlink:href="#E" x="46.75"/><use xlink:href="#G"/><use xlink:href="#G" x="11.899"/><use xlink:href="#F" x="70.549"/><use xlink:href="#H"/><use xlink:href="#I"/><use xlink:href="#J"/><path d="M308.077 221.232v-19.301c0-.15-.101-.25-.25-.25h-2c-.3 0-.5-.2-.5-.45v-2.2a.47.47 0 0 1 .5-.5h2c.149 0 .25-.101.25-.25v-7.4c0-3.601 1.85-5.9 5.4-5.9 1 0 1.95.3 2.75.649.3.15.45.301.35.601l-.699 2.35c-.101.351-.351.351-.65.2-.5-.25-1-.399-1.45-.399-1.25 0-2.05.899-2.05 2.699v7.201c0 .149.1.25.25.25h3.1a.47.47 0 0 1 .5.5v2.2c0 .25-.199.45-.5.45h-3.1c-.15 0-.25.1-.25.25v19.301c0 .3-.2.5-.45.5h-2.7a.47.47 0 0 1-.501-.501zm14.05-31.752l2.7-1.45c.35-.15.6 0 .6.351v9.9c0 .149.1.25.25.25h2.75a.47.47 0 0 1 .5.5v2.15a.47.47 0 0 1-.5.5h-2.75c-.15 0-.25.1-.25.25v19.301a.47.47 0 0 1-.5.5h-2.65a.47.47 0 0 1-.5-.5v-19.301c0-.15-.1-.25-.25-.25h-2.75a.47.47 0 0 1-.5-.5v-2.15a.47.47 0 0 1 .5-.5h2.75c.15 0 .25-.101.25-.25v-8.201c-.001-.25.1-.5.35-.6z"/><use xlink:href="#G" x="149.647"/><path d="M345.275 190.381c0-1.45 1.25-2.7 2.75-2.7 1.4 0 2.65 1.25 2.65 2.7s-1.25 2.75-2.65 2.75c-1.5 0-2.75-1.3-2.75-2.75zm.85 30.851v-22.201a.47.47 0 0 1 .5-.5h2.65a.47.47 0 0 1 .5.5v22.201a.47.47 0 0 1-.5.5h-2.65a.47.47 0 0 1-.5-.5z"/><use xlink:href="#H" x="128.848"/><use xlink:href="#I" x="128.848"/><path d="M405.725 210.132c0-7.351 4.9-12.101 11.301-12.101s11.2 4.85 11.2 11.551c0 .35 0 .75-.05 1.149a.45.45 0 0 1-.5.4h-17.651c-.35 0-.55.15-.45.65.551 4.35 3.501 7.2 7.951 7.2 2.75 0 4.95-1.25 6.55-2.9.351-.35.601-.45.851-.2l1.649 1.801c.2.199.2.449 0 .649-2.35 2.45-5.5 3.95-9.05 3.95-6.9.001-11.801-4.799-11.801-12.149zm18.601-2.5c-.649-3.751-3.45-6.301-7.3-6.301-3.801 0-6.751 2.65-7.351 6.351-.101.4 0 .55.45.55h13.75c.401-.001.551-.15.451-.6z"/><use xlink:href="#K"/><path d="M469.974 220.633l17.951-29.902c.15-.3.05-.45-.2-.45h-17.451a.47.47 0 0 1-.5-.5v-2.55a.47.47 0 0 1 .5-.5h23.151c.551 0 .9.5.551 1.149l-17.951 29.853c-.2.3-.05.45.25.45h18.15c.351 0 .551.199.551.5v2.55c0 .3-.2.5-.551.5h-23.901c-.55-.001-.85-.55-.55-1.1zm43.652-22.102h2.65a.47.47 0 0 1 .5.5v22.201a.47.47 0 0 1-.5.5h-2.4a.47.47 0 0 1-.5-.5v-1.65c0-.25-.2-.35-.45-.1-1.45 1.7-3.3 2.75-6.05 2.75-5.101 0-7.751-3.4-7.751-7.65v-15.551a.47.47 0 0 1 .5-.5h2.65a.47.47 0 0 1 .5.5v14.951c0 3.25 1.75 5 4.851 5 2.2 0 4.05-1.2 5.25-3.301.2-.399.25-.649.25-1.05V199.03a.47.47 0 0 1 .5-.499z"/><use xlink:href="#F" x="386.546"/><use xlink:href="#J" x="265.997"/><use xlink:href="#L"/><use xlink:href="#L" x="38.949"/><path d="M649.472 210.132c0-7.351 4.9-12.101 11.301-12.101s11.2 4.85 11.2 11.551c0 .35 0 .75-.05 1.149a.45.45 0 0 1-.5.4h-17.651c-.35 0-.55.15-.45.65.551 4.35 3.501 7.2 7.951 7.2 2.75 0 4.95-1.25 6.55-2.9.351-.35.601-.45.851-.2l1.649 1.801c.2.199.2.449 0 .649-2.35 2.45-5.5 3.95-9.05 3.95-6.9.001-11.801-4.799-11.801-12.149zm18.601-2.5c-.649-3.751-3.45-6.301-7.3-6.301-3.801 0-6.751 2.65-7.351 6.351-.101.4 0 .55.45.55h13.75c.401-.001.552-.15.451-.6z"/><use xlink:href="#K" x="243.747"/><use xlink:href="#I" x="449.195"/><path d="M726.072 210.132c0-7.251 4.95-12.101 11.4-12.101 3.3 0 5.851 1.1 7.551 3.1.149.15.3.051.3-.149v-1.95a.47.47 0 0 1 .5-.5h2.45a.47.47 0 0 1 .5.5v22.201a.47.47 0 0 1-.5.5h-2.45a.47.47 0 0 1-.5-.5v-1.95c0-.2-.15-.3-.3-.15-1.851 1.851-4.251 3.101-7.551 3.101-6.45-.002-11.4-4.852-11.4-12.102zm18.851 5.1c.15-.301.2-.5.2-.9v-8.4c0-.4-.05-.601-.2-.9-1.25-2.2-3.75-3.7-6.9-3.7-4.95 0-8.25 3.551-8.25 8.801s3.3 8.801 8.25 8.801c3.15-.001 5.75-1.452 6.9-3.702z"/><use xlink:href="#G" x="571.843"/><path d="M769.72 189.48l2.7-1.45c.35-.15.6 0 .6.351v9.9c0 .149.1.25.25.25h2.75a.47.47 0 0 1 .5.5v2.15a.47.47 0 0 1-.5.5h-2.75c-.15 0-.25.1-.25.25v19.301a.47.47 0 0 1-.5.5h-2.65a.47.47 0 0 1-.5-.5v-19.301c0-.15-.1-.25-.25-.25h-2.75a.47.47 0 0 1-.5-.5v-2.15a.47.47 0 0 1 .5-.5h2.75c.15 0 .25-.101.25-.25v-8.201c0-.25.1-.5.35-.6z"/></g><defs ><path id="B" d="M128.979 92.333h-2.65a.47.47 0 0 1-.5-.5V69.631a.47.47 0 0 1 .5-.5h2.4a.47.47 0 0 1 .5.5v1.65c0 .25.2.35.4.1 1.5-1.7 3.35-2.75 6.05-2.75 5.15 0 7.801 3.4 7.801 7.651v15.551a.47.47 0 0 1-.5.5h-2.65a.47.47 0 0 1-.5-.5V76.881c0-3.25-1.75-5-4.85-5-2.2 0-4.051 1.2-5.251 3.3a2.03 2.03 0 0 0-.25 1.05v15.601a.47.47 0 0 1-.5.501z"/><path id="C" d="M120.978 133.381c.301 0 .45.2.45.5v2.65c0 .35-.2.5-.55.4l-1.2-.1c-2.601 0-4.351 1.25-5.5 2.95-.301.45-.351.8-.351 1.25v15.501a.47.47 0 0 1-.5.5h-2.65a.47.47 0 0 1-.5-.5v-22.201a.47.47 0 0 1 .5-.5h2.4a.47.47 0 0 1 .5.5v1.8c0 .25.15.35.351.15 1.3-1.55 3.35-2.95 6.3-2.95.25 0 .5 0 .75.05z"/><path id="D" d="M177.677 133.831h2.65a.47.47 0 0 1 .5.5v22.201a.47.47 0 0 1-.5.5h-2.4a.47.47 0 0 1-.5-.5v-1.65c0-.25-.2-.35-.45-.1-1.45 1.7-3.3 2.75-6.05 2.75-5.101 0-7.751-3.4-7.751-7.65v-15.551a.47.47 0 0 1 .5-.5h2.65a.47.47 0 0 1 .5.5v14.951c0 3.25 1.75 5 4.851 5 2.2 0 4.05-1.2 5.25-3.301.2-.399.25-.649.25-1.05V134.33a.47.47 0 0 1 .5-.499z"/><path id="E" d="M109.579 210.132c0-7.351 4.9-12.101 11.301-12.101s11.2 4.85 11.2 11.551c0 .35 0 .75-.05 1.149a.45.45 0 0 1-.5.4h-17.651c-.35 0-.55.15-.45.65.551 4.35 3.501 7.2 7.951 7.2 2.75 0 4.95-1.25 6.55-2.9.351-.35.601-.45.851-.2l1.649 1.801c.2.199.2.449 0 .649-2.35 2.45-5.5 3.95-9.05 3.95-6.901.001-11.801-4.799-11.801-12.149zm18.6-2.5c-.649-3.751-3.45-6.301-7.3-6.301-3.801 0-6.751 2.65-7.351 6.351-.101.4 0 .55.45.55h13.75c.402-.001.552-.15.451-.6z"/><path id="F" d="M136.228 216.782c-.1-.3 0-.5.3-.601l2.4-.85c.3-.1.55.05.65.35.649 2.251 2.6 3.4 4.45 3.4 2.899 0 4.3-1.6 4.3-3.65 0-2.3-1.7-3.3-4.05-3.75l-2-.399c-3.4-.65-5.551-3.251-5.551-6.551 0-3.75 3.101-6.7 7.5-6.7 3.601 0 6.351 1.95 7.351 5.5.101.35-.05.55-.35.65l-2.351.6c-.3.101-.55-.05-.6-.35-.5-1.95-1.9-3.2-4.051-3.2-2.35 0-3.899 1.399-3.899 3.35 0 2.051 1.199 3.001 3.399 3.45l1.95.4c3.551.7 6.251 2.95 6.251 7 0 3.9-2.95 6.851-7.9 6.851-4.099 0-6.749-2.3-7.799-5.5z"/><path id="G" d="M190.779 219.183v2.25a.47.47 0 0 1-.5.5h-.9c-3.05 0-4.95-1.4-4.95-4.601V186.03a.47.47 0 0 1 .5-.5h2.65a.47.47 0 0 1 .5.5v30.852c0 1.101.399 1.801 1.5 1.801h.7a.47.47 0 0 1 .5.5z"/><path id="H" d="M238.478 198.031c3.95 0 7.45 1.75 9.351 4.9a.49.49 0 0 1-.2.699l-2.15 1.2c-.25.15-.5.101-.7-.199-1.25-2.051-3.55-3.251-6.3-3.251-4.801 0-7.9 3.551-7.9 8.751s3.1 8.75 7.9 8.75c2.75 0 4.95-1.25 6.3-3.25.2-.3.45-.35.7-.2l2.15 1.2a.49.49 0 0 1 .2.7c-1.65 3.301-5.4 4.9-9.351 4.9-6.751 0-11.601-4.851-11.601-12.101s4.85-12.099 11.601-12.099z"/><path id="I" d="M256.677 221.732h-2.65a.47.47 0 0 1-.5-.5V186.03a.47.47 0 0 1 .5-.5h2.65a.47.47 0 0 1 .5.5v14.4c0 .301.15.351.351.101 1.35-1.5 3.35-2.5 5.85-2.5 5.15 0 7.801 3.4 7.801 7.65v15.551a.47.47 0 0 1-.5.5h-2.65a.47.47 0 0 1-.5-.5v-14.951c0-3.25-1.75-5-4.85-5-2.2 0-4.101 1.15-5.251 3.3a2.03 2.03 0 0 0-.25 1.051v15.601a.47.47 0 0 1-.501.499z"/><path id="J" d="M276.878 210.132c0-7.251 4.95-12.101 11.4-12.101 3.3 0 5.851 1.1 7.551 3.1.149.15.3.051.3-.149v-1.95a.47.47 0 0 1 .5-.5h2.45a.47.47 0 0 1 .5.5v22.201a.47.47 0 0 1-.5.5h-2.45a.47.47 0 0 1-.5-.5v-1.95c0-.2-.15-.3-.3-.15-1.851 1.851-4.251 3.101-7.551 3.101-6.45-.002-11.4-4.852-11.4-12.102zm18.85 5.1c.15-.301.2-.5.2-.9v-8.4c0-.4-.05-.601-.2-.9-1.25-2.2-3.75-3.7-6.9-3.7-4.95 0-8.25 3.551-8.25 8.801s3.3 8.801 8.25 8.801c3.15-.001 5.751-1.452 6.9-3.702z"/><path id="K" d="M437.125 221.732h-2.65a.47.47 0 0 1-.5-.5v-22.201a.47.47 0 0 1 .5-.5h2.4a.47.47 0 0 1 .5.5v1.649c0 .25.2.351.4.101 1.5-1.7 3.35-2.75 6.05-2.75 5.15 0 7.801 3.4 7.801 7.65v15.551a.47.47 0 0 1-.5.5h-2.65a.47.47 0 0 1-.5-.5v-14.951c0-3.25-1.75-5-4.85-5-2.2 0-4.051 1.2-5.251 3.3a2.03 2.03 0 0 0-.25 1.051v15.601a.47.47 0 0 1-.5.499z"/><path id="L" d="M576.374 221.732h-2.65a.47.47 0 0 1-.5-.5v-22.201a.47.47 0 0 1 .5-.5h2.4a.47.47 0 0 1 .5.5v1.649c0 .25.2.351.4.101 1.45-1.7 3.4-2.75 6.05-2.75 3.351 0 5.601 1.5 6.851 3.55.15.25.301.25.5 0 1.65-2.05 3.551-3.55 6.701-3.55 5.1 0 7.75 3.4 7.75 7.65v15.551a.47.47 0 0 1-.5.5h-2.65a.47.47 0 0 1-.5-.5v-14.951c0-3.3-1.8-5-4.9-5-2.3 0-3.95 1.15-5.15 3.2-.199.35-.3.8-.3 1.2v15.551a.47.47 0 0 1-.5.5h-2.65a.47.47 0 0 1-.5-.5v-14.951c0-3.25-1.75-5-4.85-5-2.2 0-4.051 1.2-5.251 3.3-.2.4-.25.65-.25 1.101v15.551a.47.47 0 0 1-.501.499z"/></defs></svg>