<svg xmlns="http://www.w3.org/2000/svg" viewBox="0 0 497.4 151.9" fill="#1e3791" xmlns:v="https://vecta.io/nano"><path d="M302.4 103v24.2h11.4l-.1 3.3h-14.8V103h3.5zm-56.7 0v27.5h15.7l.1-3.3h-12.3v-9.5h10.1v-3h-10.1v-8.4H261l-.1-3.3h-15.2zm38.7 7.9c0-3.6-1.4-4.8-4.5-4.8h-4.8v9.7h4.7c3.1 0 4.6-1.2 4.6-4.9zM283 118l6.6 12.4h-4.1l-5.6-11.8h-4.8v11.8h-3.5V103h8.2c5.5 0 8.1 2.4 8.1 7.8.1 4.3-1.7 6.6-4.9 7.2zm-56.1 9.4c3 0 4.7-1.2 4.7-5 0-3.4-1.5-4.8-4.8-4.8H221v9.8h5.9zm-6-12.6h5.6c2.9 0 4.1-1.4 4.1-4.4 0-3.2-1.3-4.3-4.3-4.3h-5.5l.1 8.7h0zm9.6 1.1c2.9.7 4.6 2.8 4.6 6.7 0 5-2.3 7.8-8.2 7.8h-9.3V103h9c5 0 7.6 2.2 7.6 6.8-.1 3.4-1.6 5.3-3.7 6.1h0zm92.6 14.5h3.5V103h-1.8-1.8l.1 27.4h0zm31.3-27.4v17.9l.1 2.9h-.1l-1.5-2.6L342 103h-3.2v27.5h3.1V112v-3h.1l1.5 2.6 11.5 18.9h2.5V103h-3.1zm51.7-28.2c-.8.2-1.6.3-2.6.3-4.2 0-5.7-1.8-5.7-8.9 0-7 1.5-8.9 6.4-8.9 2.1 0 4.3.4 6 1.1l.6-5.1c-1.9-.8-4.5-1.2-6.9-1.2-8.5 0-12.1 4.4-12.1 14.3 0 9.6 3.2 14.2 11.9 14.2 2.8 0 5.7-.6 7.6-1.5v-14h-5.2v9.7h0zM272.8 52.5h-2.9-2.9V80h5.9V52.5h-.1zM246.4 80h5.8V57.9h6.7l-.1-5.4h-18.9l-.1 5.4h6.7l-.1 22.1h0zM224 75.3c-2.5 0-4.7-.7-6.8-1.8l-.8 5.1c2.1 1.2 4.8 1.9 7.7 1.9 5.9 0 9.4-3.2 9.4-8.6 0-9-11.4-7.4-11.4-11.8 0-1.5.9-2.7 4-2.7 1.9 0 3.8.4 5.9 1.1l.7-5c-1.9-.9-4.4-1.4-6.9-1.4-6.3 0-9.2 3.6-9.2 8.2 0 9 11.4 7.4 11.4 11.9-.1 2-1.3 3.1-4 3.1zm153.6-9.1l.1 2.9h-.1l-10.2-16.7h-4.9V80h5.1V65.5v-3h.1l1.5 2.6 9.4 14.9h4.1V52.5h-5.1v13.7zM298 64h-9v-6.1h10.7l-.1-5.4h-16.4V80h5.8V69.1h8.9l.1-5.1zm54.6 6.6V52.5h-5.7v18.1c0 3.2-1.2 4.5-4.3 4.5s-4.4-1.4-4.4-4.5V52.5h-5.8v18.1c0 6.6 3.5 9.8 10.1 9.8s10.1-3.2 10.1-9.8zm-27.7-18.1H306l-.1 5.4h6.7V80h5.8V57.9h6.7l-.2-5.4zM342.7 28V.5h-5.1v13.7l.1 2.9h-.1L327.5.5h-4.9V28h5.1V13.5v-3h.1l1.5 2.6 9.4 14.9c-.1 0 4 0 4 0zm-122.1 0h5.8V5.9h6.7L233 .5h-18.9l-.1 5.4h6.7l-.1 22.1h0zm265.5-5.2v-6.5h9.1v-4.8h-9.1V5.7h10.8l-.1-5.3h-16.4V28h16.9l.1-5.2h-11.3 0zm-87.2-.2h-10.1V.5H383V28h15.8l.1-5.4zm-100.9-6h8.5V28h5.8V.5h-5.8v10.7H298V.5h-5.8V28h5.8V16.6zm-39.6 6.2H247v-6.5h9.1v-4.8H247V5.7h10.8l-.1-5.3h-16.4V28h16.9l.2-5.2zm109.3-8.6c0-7.3-1.2-8.8-5-8.8-3.7 0-5 1.6-5 8.8 0 7.3 1.3 8.9 5 8.9 3.8 0 5-1.6 5-8.9zm-4.9 14.2c-7.7 0-11-4.1-11-14.2C351.8 4 355 0 362.8 0s11 4 11 14.2c0 10.4-3.2 14.2-11 14.2zm101.3-.4h5.9V.5h-3-2.9V28zm-186.6.4c2.2 0 4.5-.5 6.2-1.4l-.6-4.9c-1.4.6-2.9 1-4.7 1-4.5 0-6.1-2-6.1-9.2 0-6.7 1.5-8.7 6-8.7 1.8 0 3.5.4 4.8.8l.6-5.1c-1.4-.6-3.8-1.1-5.8-1.1-8 0-11.6 4.6-11.6 14-.1 10.2 3.5 14.6 11.2 14.6zM421 14.2c0-7.3-1.2-8.8-5-8.8-3.7 0-5 1.6-5 8.8 0 7.3 1.3 8.9 5 8.9s5-1.6 5-8.9zm6 0c0 10.4-3.2 14.2-11 14.2-7.7 0-11-4.1-11-14.2C405 4 408.2 0 416 0s11 4.1 11 14.2zm22.2 8.6a10.9 10.9 0 0 1-2.6.3c-4.2 0-5.7-1.8-5.7-8.9 0-7 1.5-8.9 6.4-8.9 2.1 0 4.3.4 6 1.1l.6-5.1C452 .5 449.3 0 447 0c-8.5 0-12.1 4.4-12.1 14.3 0 9.6 3.3 14.2 11.9 14.2 2.8 0 5.8-.6 7.6-1.5V13.1h-5.2v9.7h0zM8.1 104.5l2.3-1.4 39 6.1-1.5 1.5-39.8-6.2zm102.8-45.7l-1.3 1.3 43.9 19.3-.4-2.1-42.2-18.5zm-16.8-7.4l-1.8 1.1 8.4 3.7 1.3-1.3-7.9-3.5zm92.6 40.2l-18.2 40.1L58.2 113l2.9-3.1 103.8 17.7-19.5-108.3L16.6 151.9 0 102.3l36.7-76.7 47.9 21.1-3.6 2.2-42.6-18.8L5.6 98.7l141.8-87.5 20.4 113.3L182 93.4l-18.4-8.1-.7-4.2 23.8 10.5zM18.1 145.3L139.9 20 4.2 103.7l13.9 41.6z"/></svg>